<svg xmlns="http://www.w3.org/2000/svg" width="22.358" height="16.106" viewBox="0 0 22.358 16.106">
    <defs>
        <style>
            .cls-1{fill:#5d5d5d}
        </style>
    </defs>
    <path id="noun_back_arrow_2690272" d="M19.9 98.526V94.48a.545.545 0 0 0-.254-.474.434.434 0 0 0-.494.026l-9.936 7.516A.568.568 0 0 0 9 102a.56.56 0 0 0 .212.448l9.932 7.511a.435.435 0 0 0 .494.031.558.558 0 0 0 .254-.479v-4.345a31.613 31.613 0 0 1 3.936.237c5.169.69 6.555 4.18 6.61 4.324a.475.475 0 0 0 .443.324.583.583 0 0 0 .092-.005.526.526 0 0 0 .383-.53c.002-8.797-9.297-10.671-11.456-10.99z" class="cls-1" data-name="noun_back arrow_2690272" transform="translate(-9 -93.942)"/>
</svg>
