<svg xmlns="http://www.w3.org/2000/svg" id="noun_Save_2429243" width="19.533" height="20.122" viewBox="0 0 19.533 20.122">
    <defs>
        <style>
            .cls-1{fill:#5d5d5d;fill-rule:evenodd}
        </style>
    </defs>
    <path id="Path_746" d="M76.577 64.17h11.9l5.638 5.638.111.006v12.592a1.891 1.891 0 0 1-1.887 1.886H76.577a1.892 1.892 0 0 1-1.887-1.886v-16.35a1.892 1.892 0 0 1 1.887-1.886zm2.192 8.956h11.374a1.891 1.891 0 0 1 1.886 1.886v5.441a1.892 1.892 0 0 1-1.886 1.887H78.769a1.891 1.891 0 0 1-1.886-1.887v-5.441a1.891 1.891 0 0 1 1.886-1.886z" class="cls-1" data-name="Path 746" transform="translate(-74.69 -64.17)"/>
</svg>
