<svg xmlns="http://www.w3.org/2000/svg" width="18.49" height="20.252" viewBox="0 0 18.49 20.252">
    <defs>
        <style>
            .cls-1{fill:#5d5d5d}
        </style>
    </defs>
    <g id="noun_copy_573715">
        <path id="Path_748" d="M24.173 18.61a.883.883 0 0 1-.881-.881V3.157a.416.416 0 0 0-.44-.44H10.041a.934.934 0 0 1-.66-1.057.992.992 0 0 1 .66-.66H22.9a2.161 2.161 0 0 1 2.157 2.157V17.73a.883.883 0 0 1-.884.88z" class="cls-1" data-name="Path 748" transform="translate(-6.563 -1)"/>
        <path id="Path_749" d="M17.969 7H4.321A1.3 1.3 0 0 0 3 8.321v14.968a1.3 1.3 0 0 0 1.321 1.321h13.207a1.3 1.3 0 0 0 1.321-1.321V7.881a.883.883 0 0 0-.88-.881z" class="cls-1" data-name="Path 749" transform="translate(-3 -4.358)"/>
    </g>
</svg>
